<svg width="82" height="83" viewBox="0 0 82 83" fill="none" xmlns="http://www.w3.org/2000/svg">
  <style>
    .fg { fill: #363636; }
    .accent-purple { fill: #6152EC; }
    .accent-gradient { fill: url(#paint0_linear_60_11); }
    @media (prefers-color-scheme: dark) {
      .fg, .accent-purple, .accent-gradient { fill: #ffffff; }
    }
  </style>
  <path class="fg" d="M6.7013 57.5099C7.79716 57.3971 10.9372 57.4494 12.094 57.4692C13.9428 57.5009 17.3427 57.3174 18.9819 57.5906C19.9289 57.7463 20.8349 58.091 21.6457 58.6043C25.909 61.2703 25.024 65.4852 25.1214 69.6968C25.2497 75.2395 25.693 80.8674 18.8637 82.2988C15.2279 82.4271 11.5451 82.3113 7.90545 82.3499C5.99166 82.3698 4.53545 82.0505 2.98942 80.8758C1.41616 79.6708 0.392076 77.8851 0.146697 75.9187C-0.0572644 74.2744 -0.0665505 65.0109 0.233809 63.491C0.467921 62.2944 0.983718 61.1706 1.73843 60.213C3.00757 58.6052 4.69518 57.7607 6.7013 57.5099Z"/>
  <path class="fg" d="M35.4777 29.4491C38.2972 29.3513 41.1881 29.4826 44.0142 29.4182C45.1369 29.3925 46.3653 29.3996 47.4596 29.649C48.5956 29.9009 49.6565 30.4162 50.5569 31.1534C53.8342 33.8305 53.3442 37.6768 53.3288 41.4552C53.3199 43.6158 53.5362 46.6796 53.0445 48.7466C52.7865 49.8482 52.2698 50.8725 51.5375 51.7348C50.0976 53.4459 48.4653 54.086 46.2962 54.2761L39.0462 54.2893C37.4073 54.2916 35.6118 54.3834 34.008 54.0987C30.9328 53.5529 28.5926 50.7827 28.3522 47.7027C28.2793 45.9986 28.225 44.161 28.2924 42.458C28.3777 40.3021 28.0511 37.3465 28.4875 35.2794C28.7341 34.1069 29.2648 33.0127 30.0329 32.0931C31.4952 30.3551 33.2738 29.6427 35.4777 29.4491Z"/>
  <path class="accent-gradient" d="M63.9493 29.4592C66.7569 29.3628 69.6042 29.4695 72.4159 29.4186C73.9547 29.3894 75.3339 29.4373 76.783 30.0017C81.868 31.9817 81.5936 36.8319 81.4381 41.3765C81.3609 43.6423 81.7115 46.6419 81.2097 48.7707C80.9269 49.9746 80.3396 51.0856 79.5039 51.9975C77.9338 53.7208 76.1404 54.2014 73.9046 54.3042C71.7117 54.2915 69.5176 54.2929 67.3249 54.3086C65.6353 54.313 63.4025 54.4174 61.8085 54.0264C60.7868 53.7785 59.8403 53.2866 59.0501 52.593C57.5002 51.2427 56.5379 49.3515 56.4763 47.2829C56.3989 44.6829 56.4684 42.0714 56.4418 39.4682C56.4282 38.1453 56.3847 36.4691 56.6753 35.191C56.9632 33.9664 57.5508 32.8325 58.3854 31.8911C59.8986 30.1896 61.7459 29.5767 63.9493 29.4592Z"/>
  <path class="fg" d="M63.6938 0.0414936C65.8054 -0.00315874 68.0125 0.000179743 70.1008 0.0183328C73.3663 0.103569 76.2207 -0.529074 78.9061 1.7941C82.0015 4.47251 81.4788 7.90719 81.4423 11.6143C81.4225 13.6472 81.6676 17.2767 81.2545 19.1799C80.9989 20.3584 80.4481 21.4527 79.6541 22.3605C78.1841 24.0697 76.614 24.6472 74.4565 24.8076L67.5063 24.8232C65.7561 24.8259 63.4517 24.9487 61.7905 24.5703C58.8376 23.8977 56.5335 20.865 56.478 17.8667C56.4471 16.2024 56.4721 14.4757 56.4761 12.806C56.5747 10.645 56.203 7.67767 56.6936 5.6077C56.9846 4.39812 57.575 3.28108 58.4106 2.35945C59.9019 0.719001 61.5586 0.144882 63.6938 0.0414936Z"/>
  <path class="accent-purple" d="M37.5879 60.4398C39.9705 60.2931 42.7424 60.3265 45.095 60.5693C47.4412 60.8114 50.0024 63.5034 50.0566 65.8217C50.108 68.0178 50.4271 71.9789 49.9663 74.0166C49.7654 74.9248 49.375 75.7803 48.8204 76.5271C47.5811 78.1855 46.0834 78.67 44.1423 78.9475C39.282 78.9736 32.133 80.0586 31.5509 73.376C31.4036 71.6855 31.3653 66.4948 31.7105 65.0028C31.9026 64.1344 32.2971 63.3238 32.8617 62.6367C34.1406 61.0805 35.6641 60.6095 37.5879 60.4398Z"/>
  <defs>
    <linearGradient id="paint0_linear_60_11" x1="68.9667" y1="29.4121" x2="68.9667" y2="54.3245" gradientUnits="userSpaceOnUse">
      <stop stop-color="#433CE2"/>
      <stop offset="1" stop-color="#8269F7"/>
    </linearGradient>
  </defs>
</svg>
